# xmcd CD database file
#
# Track frame offsets:
#	150
#	9467
#	18517
#	31787
#	44575
#	55770
#	69897
#	80937
#	91150
#	101872
#	115885
#	126927
#	140197
#	150842
#	162662
#	174190
#
# Disc length: 2472 seconds
#
# Revision: 1
# Processed by: cddbd v1.5.1PL2 Copyright (c) Steve Scherf et al.
# Submitted via: CDex 1.51
#
DISCID=cf09a610
DTITLE=Various Artist - American Dream 11
DYEAR=1900
DGENRE=Pop
TTITLE0=Dinah Shore/Buttons And Bows
TTITLE1=Rosemary Clooney/Come On-A My House
TTITLE2=Mitch Miller The Gang And Orchestra/The Yellow Roses Of Texas
TTITLE3=The Ames Brothers/The Naughty Lady Of Shady Lane
TTITLE4=Jo Stafford/On London Bridge
TTITLE5=Eartha Kitt/Uska Dara -A Turkish Tale
TTITLE6=Patti Page/The Doggie In The Window
TTITLE7=The Four Lads/Skokiaan (South African Song)
TTITLE8=The Ames Brothers/The Little Shoemaker
TTITLE9=Teresa Brewer/Till I Waltz Again With You
TTITLE10=Georgia Gibbs/Kiss Of Fire
TTITLE11=Patti Page/Changing Partners
TTITLE12=The Four Lads/Istanbul (Not Constantinople)
TTITLE13=Orquesta De Enrique Jorrin/Milagros Del Cha Cha Cha
TTITLE14=The McGuire Sisters/Sugartime
TTITLE15=Rosemary Clooney/Mambo Italiano
EXTD=
EXTT0=
EXTT1=
EXTT2=
EXTT3=
EXTT4=
EXTT5=
EXTT6=
EXTT7=
EXTT8=
EXTT9=
EXTT10=
EXTT11=
EXTT12=
EXTT13=
EXTT14=
EXTT15=
PLAYORDER=
